<svg width="1000" height="1000" viewBox="0 0 1000 1000" fill="none" xmlns="http://www.w3.org/2000/svg">
<path d="M549.901 200.687C655.21 177.616 755.964 228.775 775.113 315.152C785.563 362.287 769.556 410.185 735.764 447.813C782.292 467.634 817.042 504.281 827.492 551.416C846.641 637.794 776.948 726.738 671.755 750.335L671.756 750.338L289.144 835.161C272.969 838.748 256.948 828.542 253.362 812.366L144.493 321.289C140.907 305.113 151.113 289.093 167.289 285.507L549.901 200.684L549.901 200.687Z" fill="#800877"/>
<path d="M411.781 420.459C411.95 422.706 412.281 424.968 412.783 427.232C418.461 452.843 443.826 469.003 469.438 463.325C495.05 457.647 511.209 432.282 505.531 406.67C499.853 381.058 474.488 364.899 448.876 370.577C445.453 371.335 442.201 372.45 439.145 373.865L266.074 263.607L475.798 217.112L475.799 217.115C562.173 198.242 647.595 252.799 666.744 339.177C677.194 386.312 665.752 433.197 639.185 469.224C678.489 490.647 708.673 528.306 719.123 575.441C738.272 661.818 683.911 747.364 597.653 766.763L597.654 766.767L429.243 804.102L382.865 594.903L462.513 646.294C462.51 649.713 462.876 653.185 463.646 656.661C469.324 682.273 494.689 698.432 520.301 692.754C545.913 687.076 562.072 661.711 556.394 636.099C550.716 610.488 525.351 594.328 499.739 600.006C497.526 600.497 495.384 601.134 493.32 601.907L356.919 513.897C347.719 507.961 335.844 508.168 326.857 514.423C317.87 520.677 313.55 531.739 315.92 542.428L376.523 815.79L289.144 835.161C272.969 838.748 256.948 828.542 253.362 812.366L144.493 321.289C140.907 305.113 151.113 289.093 167.289 285.507L191.517 280.136L411.781 420.459Z" fill="#8F2687"/>
</svg>
